<svg xmlns="http://www.w3.org/2000/svg" viewBox="0 0 256 256" width="256" height="256">
  <g>
    <!-- Main shape -->
    <path fill="#FE705A" d="M181.53,254.25c4.03,1.57,8.63,1.47,12.7-0.49l52.71-25.36c5.54-2.66,9.06-8.27,9.06-14.42V42.02
      c0-6.15-3.52-11.75-9.06-14.42L194.23,2.24c-5.34-2.57-11.59-1.94-16.28,1.47l-100.9,92.05L31.2,64.02
      c-4.09-3.11-9.81-2.85-13.61,0.61L3.49,77.45c-4.65,4.23-4.65,11.54-0.01,15.77L41.59,128L3.48,162.77
      c-4.64,4.24-4.64,11.55,0.01,15.78l14.1,12.82c3.8,3.46,9.52,3.71,13.61,0.61l43.95-33.36l100.9,92.05
      C177.65,252.26,179.52,253.47,181.53,254.25z"/>
    <!-- Inner part -->
    <path fill="#FFFFFF" d="M192.04,69.89L115.48,128l76.56,58.12V69.89z"/>
  </g>
</svg>
   




   