<svg
    xmlns="http://www.w3.org/2000/svg"
    viewBox="0 0 256 256"
    width="256"
    height="256"
    fill="#FE705A"
>
    <path d="M128 0C57.306 0 0 57.306 0 128s57.306 128 128 128 128-57.306 128-128S198.694 0 128 0zm56.372 94.65c-.422.057-.83.127-1.236.207-3.375.716-6.952 1.984-9.74 5.05l-4.467 4.366 20.874 37.637c.086.173.152.352.184.535.037.157.061.316.075.477l9.938 17.6-6.868 3.907-9.296-16.8-20.353-35.596c-.023-.044-.053-.084-.086-.121-4.443-4.443-10.949-5.854-17.055-6.169-.15-.017-.295-.028-.442-.028-1.03 0-2.081.086-3.127.224l-.056.007c-6.732.986-13.198 3.856-17.657 8.324l-7.143 7.143 20.187 36.114c2.096 3.661 5.214 6.635 8.844 8.529l-8.497 15.641-6.868-3.907 8.424-15.718c-1.356-2.4-2.683-4.905-3.944-7.419-.568-1.073-1.093-2.143-1.597-3.228l-8.749-15.568c-2.93-5.422-4.642-12.128-5.162-18.708-.172-1.897.056-3.794.641-5.612l.299-.884c2.303-7.638 8.086-14.285 15.226-19.292a62.991 62.991 0 017.698-3.421 61.233 61.233 0 0110.455-1.178c12.343.72 24.078 5.54 33.54 13.784l-2.665 4.785zM83.626 161.96c-3.168 0-5.474-2.814-5.474-5.56 0-3.025 2.577-5.306 5.576-5.306 3.062 0 5.58 2.36 5.58 5.306 0 2.746-2.411 5.56-5.58 5.56z" />
</svg>
